<svg xmlns="http://www.w3.org/2000/svg" xmlns:xlink="http://www.w3.org/1999/xlink" width="100" zoomAndPan="magnify" viewBox="0 0 375 374.999991" height="60" preserveAspectRatio="xMidYMid meet" version="1.0"><defs><g/><clipPath id="947ec28a89"><path d="M 24.53125 214.210938 L 181.148438 214.210938 L 181.148438 229.089844 L 24.53125 229.089844 Z M 24.53125 214.210938 " clip-rule="nonzero"/></clipPath><clipPath id="699b6dd3cd"><path d="M 201.53125 128.585938 L 358.148438 128.585938 L 358.148438 143.464844 L 201.53125 143.464844 Z M 201.53125 128.585938 " clip-rule="nonzero"/></clipPath></defs><rect x="-37.5" width="450" fill="#ffffff" y="-37.499999" height="449.999989" fill-opacity="1"/><rect x="-37.5" width="450" fill="#050401" y="-37.499999" height="449.999989" fill-opacity="1"/><g clip-path="url(#947ec28a89)"><path fill="#fffaff" d="M 24.53125 214.210938 L 181.132812 214.210938 L 181.132812 229.089844 L 24.53125 229.089844 Z M 24.53125 214.210938 " fill-opacity="1" fill-rule="nonzero"/></g><g clip-path="url(#699b6dd3cd)"><path fill="#fffaff" d="M 201.53125 128.585938 L 358.132812 128.585938 L 358.132812 143.464844 L 201.53125 143.464844 Z M 201.53125 128.585938 " fill-opacity="1" fill-rule="nonzero"/></g><g fill="#fffaff" fill-opacity="1"><g transform="translate(15.564896, 183.914827)"><g><path d="M 22.40625 0 L 0.71875 -56.4375 L 14.515625 -56.4375 L 22.015625 -36.359375 L 28.78125 -18.46875 L 42.96875 -56.4375 L 56.671875 -56.4375 L 34.984375 0 Z M 22.40625 0 "/></g></g></g><g fill="#fffaff" fill-opacity="1"><g transform="translate(89.653203, 183.914827)"><g><path d="M 6.765625 0 L 6.765625 -56.4375 L 19.59375 -56.4375 L 19.59375 0 Z M 6.765625 0 "/></g></g></g><g fill="#fffaff" fill-opacity="1"><g transform="translate(132.704798, 183.914827)"><g><path d="M 22.40625 0 L 0.71875 -56.4375 L 14.515625 -56.4375 L 22.015625 -36.359375 L 28.78125 -18.46875 L 42.96875 -56.4375 L 56.671875 -56.4375 L 34.984375 0 Z M 22.40625 0 "/></g></g></g><g fill="#fffaff" fill-opacity="1"><g transform="translate(224.593929, 224.962656)"><g><path d="M 6.765625 0 L 6.765625 -56.4375 L 43.859375 -56.4375 L 43.859375 -45.640625 L 19.515625 -45.640625 L 19.515625 -33.9375 L 41.6875 -33.9375 L 41.6875 -23.21875 L 19.515625 -23.21875 L 19.515625 -10.890625 L 44.75 -10.890625 L 44.75 0 Z M 6.765625 0 "/></g></g></g><g fill="#fffaff" fill-opacity="1"><g transform="translate(290.137059, 224.962656)"><g><path d="M 6.765625 0 L 6.765625 -56.4375 L 19.59375 -56.4375 L 19.59375 -34.75 L 24.421875 -34.75 C 27.597656 -34.75 29.925781 -35.257812 31.40625 -36.28125 C 32.882812 -37.300781 34.109375 -39.128906 35.078125 -41.765625 L 40.390625 -56.4375 L 54.265625 -56.4375 L 46.4375 -36.359375 C 45.738281 -34.535156 44.945312 -32.894531 44.0625 -31.4375 C 43.175781 -29.988281 42.164062 -28.726562 41.03125 -27.65625 L 56.28125 0 L 41.359375 0 L 29.265625 -22.890625 C 28.785156 -22.835938 28.316406 -22.8125 27.859375 -22.8125 C 27.398438 -22.8125 26.898438 -22.8125 26.359375 -22.8125 L 19.59375 -22.8125 L 19.59375 0 Z M 6.765625 0 "/></g></g></g></svg>